<svg id="svg" version="1.1" width="500" height="500" xmlns="http://www.w3.org/2000/svg" xmlns:xlink="http://www.w3.org/1999/xlink" style="display: block;"><g id="svgg"><path id="path0" d="M305.840 212.800 C 305.840 215.220,305.990 216.210,306.173 215.000 C 306.356 213.790,306.356 211.810,306.173 210.600 C 305.990 209.390,305.840 210.380,305.840 212.800 M350.600 220.599 C 359.730 220.727,374.670 220.727,383.800 220.599 C 392.930 220.471,385.460 220.366,367.200 220.366 C 348.940 220.366,341.470 220.471,350.600 220.599 " stroke="none" fill="#000000" fill-rule="evenodd"></path><path id="path1" d="M297.174 154.600 C 296.968 155.150,296.709 175.580,296.600 200.000 L 296.400 244.400 286.800 244.800 C 281.520 245.020,276.750 245.491,276.200 245.847 C 273.574 247.547,275.970 248.000,287.575 248.000 C 297.848 248.000,299.877 247.810,299.520 246.881 C 299.284 246.265,299.475 245.524,299.945 245.234 C 301.823 244.074,301.062 153.600,299.175 153.600 C 298.281 153.600,297.381 154.050,297.174 154.600 M341.200 191.902 C 334.706 193.581,327.841 203.733,333.200 203.733 C 333.860 203.733,334.400 203.073,334.400 202.267 C 334.400 201.460,334.672 200.800,335.005 200.800 C 335.337 200.800,336.067 199.765,336.627 198.501 C 337.702 196.072,340.260 195.227,346.600 195.209 C 348.250 195.204,349.600 194.840,349.600 194.400 C 349.600 193.960,351.580 193.600,354.000 193.600 C 356.420 193.600,358.400 193.960,358.400 194.400 C 358.400 195.557,361.392 195.385,361.870 194.200 C 362.193 193.400,362.286 193.400,362.337 194.200 C 362.374 194.781,363.490 195.202,365.000 195.205 C 366.430 195.208,368.565 195.713,369.744 196.328 C 373.647 198.365,373.508 194.883,369.600 192.746 C 367.329 191.504,345.275 190.848,341.200 191.902 M90.400 197.749 L 90.400 203.818 79.251 204.125 C 68.140 204.430,66.567 204.729,67.567 206.347 C 68.340 207.597,92.182 207.498,93.440 206.240 C 94.701 204.979,94.674 202.403,93.400 202.388 C 92.781 202.380,92.705 202.152,93.200 201.788 C 94.205 201.049,94.697 198.922,93.723 199.524 C 93.329 199.768,92.808 198.491,92.566 196.687 C 91.739 190.522,90.400 191.179,90.400 197.749 M397.384 204.049 L 397.843 216.000 366.469 216.000 C 330.161 216.000,329.362 216.196,332.486 224.335 C 333.380 226.664,334.400 225.633,334.400 222.400 L 334.400 219.200 367.200 219.200 L 400.000 219.200 399.991 209.000 C 399.981 197.359,399.454 193.069,397.965 192.497 C 397.127 192.176,397.014 194.423,397.384 204.049 M37.817 194.393 C 26.720 195.622,23.589 199.546,23.618 212.189 C 23.632 218.486,23.901 220.243,25.018 221.361 C 25.778 222.121,26.425 222.396,26.455 221.971 C 26.485 221.547,26.642 220.204,26.802 218.986 C 26.965 217.749,26.764 216.975,26.347 217.233 C 25.917 217.499,25.605 215.725,25.612 213.047 C 25.621 209.752,25.850 208.749,26.400 209.600 C 26.964 210.472,27.179 209.811,27.188 207.178 C 27.201 203.120,28.936 200.000,31.179 200.000 C 31.997 200.000,32.806 199.583,32.976 199.073 C 33.392 197.825,57.440 197.664,58.242 198.905 C 59.229 200.433,64.800 201.070,64.800 199.655 C 64.800 195.573,51.168 192.915,37.817 194.393 M193.876 210.200 C 193.830 243.519,190.526 246.010,146.400 245.988 C 120.459 245.975,117.615 245.630,109.450 241.508 C 106.554 240.046,106.503 240.047,106.617 241.565 C 106.684 242.453,107.514 243.306,108.567 243.570 C 109.575 243.823,110.400 244.384,110.400 244.815 C 110.400 245.247,110.850 245.602,111.400 245.605 C 111.950 245.608,113.396 246.129,114.613 246.764 C 115.830 247.399,119.970 248.169,123.813 248.475 C 127.656 248.781,131.047 249.412,131.348 249.878 C 131.722 250.458,132.551 250.376,133.964 249.619 C 135.553 248.769,136.251 248.731,136.976 249.456 C 138.124 250.604,144.511 250.716,145.200 249.600 C 145.472 249.160,146.732 248.800,148.000 248.800 C 149.268 248.800,150.528 249.160,150.800 249.600 C 151.072 250.040,152.713 250.400,154.447 250.400 C 156.181 250.400,157.600 250.040,157.600 249.600 C 157.600 248.494,159.696 248.598,161.635 249.800 C 162.793 250.518,163.411 250.551,163.824 249.918 C 164.141 249.433,167.811 248.784,171.979 248.476 C 176.147 248.168,179.780 247.556,180.052 247.116 C 180.324 246.676,180.874 246.406,181.273 246.516 C 182.454 246.842,185.600 245.555,185.600 244.746 C 185.600 244.336,185.990 244.000,186.467 244.000 C 187.937 244.000,192.738 238.527,193.308 236.202 C 193.604 234.991,194.241 233.743,194.723 233.429 C 195.737 232.769,196.489 202.852,195.635 197.156 C 194.512 189.665,193.898 194.218,193.876 210.200 M243.076 194.391 C 236.120 195.078,231.654 196.973,229.252 200.259 C 227.104 203.195,226.757 219.897,228.800 221.946 C 229.867 223.016,229.972 222.176,229.750 214.375 C 229.584 208.558,229.787 205.600,230.350 205.600 C 230.818 205.600,231.200 205.064,231.200 204.409 C 231.200 202.670,233.730 200.000,235.378 200.000 C 236.160 200.000,236.800 199.697,236.800 199.327 C 236.800 198.596,241.584 198.233,251.600 198.205 C 262.523 198.175,265.709 198.376,265.282 199.067 C 265.056 199.433,265.311 199.733,265.849 199.733 C 266.388 199.733,267.812 199.980,269.014 200.282 C 271.596 200.930,272.019 199.379,269.800 197.398 C 266.792 194.714,254.185 193.295,243.076 194.391 M133.400 195.530 C 126.099 197.495,124.000 201.222,124.000 212.223 C 124.000 217.986,124.288 220.043,125.200 220.800 C 126.251 221.672,126.400 220.938,126.400 214.887 C 126.400 211.087,126.738 207.353,127.152 206.589 C 127.565 205.825,128.112 204.210,128.367 203.000 C 128.622 201.790,129.245 200.800,129.752 200.800 C 130.259 200.800,131.360 200.179,132.199 199.419 C 133.953 197.832,159.837 197.446,161.785 198.977 C 163.482 200.311,168.004 200.898,167.975 199.780 C 167.860 195.284,144.834 192.454,133.400 195.530 M91.617 222.400 C 91.186 223.060,90.211 226.034,89.451 229.009 C 85.861 243.048,78.378 245.973,46.000 245.990 C 24.599 246.001,18.466 245.212,11.023 241.489 C 5.946 238.950,5.600 238.855,5.600 239.991 C 5.600 241.396,8.314 244.000,9.778 244.000 C 10.560 244.000,11.200 244.360,11.200 244.800 C 11.200 245.240,11.622 245.600,12.137 245.600 C 12.652 245.600,13.650 246.121,14.353 246.757 C 15.154 247.483,18.388 248.123,23.016 248.472 C 27.077 248.779,30.400 249.338,30.400 249.715 C 30.400 250.785,32.624 250.518,33.029 249.400 C 33.319 248.600,33.730 248.600,35.085 249.400 C 37.102 250.591,43.200 250.741,43.200 249.600 C 43.200 249.160,44.100 248.800,45.200 248.800 C 46.300 248.800,47.200 249.160,47.200 249.600 C 47.200 250.800,55.796 250.609,56.202 249.400 C 56.463 248.622,57.024 248.659,58.721 249.563 C 60.196 250.349,61.082 250.453,61.452 249.884 C 61.753 249.421,65.224 248.800,69.163 248.504 C 73.103 248.208,76.523 247.665,76.763 247.298 C 77.004 246.931,78.560 246.381,80.222 246.075 C 81.884 245.769,83.033 245.177,82.775 244.760 C 82.517 244.342,82.809 244.000,83.424 244.000 C 84.982 244.000,89.436 238.933,90.058 236.453 C 90.342 235.324,90.910 234.400,91.322 234.400 C 91.733 234.400,91.998 233.950,91.909 233.400 C 91.820 232.850,92.005 231.817,92.319 231.105 C 93.224 229.055,92.569 220.941,91.617 222.400 M398.263 227.229 C 397.527 227.658,396.349 229.744,395.645 231.865 C 392.005 242.822,382.516 245.948,352.800 245.980 C 332.892 246.002,326.207 245.139,319.600 241.695 C 317.400 240.548,315.330 239.487,315.000 239.338 C 314.670 239.189,314.400 239.781,314.400 240.654 C 314.400 242.353,318.480 245.198,322.235 246.117 C 323.426 246.408,324.587 246.928,324.816 247.273 C 325.045 247.618,328.105 248.155,331.616 248.467 C 335.127 248.779,338.259 249.432,338.576 249.917 C 338.984 250.544,339.669 250.479,340.939 249.691 C 342.209 248.903,342.815 248.845,343.030 249.491 C 343.403 250.610,349.600 250.712,349.600 249.600 C 349.600 249.160,350.680 248.800,352.000 248.800 C 353.320 248.800,354.400 249.160,354.400 249.600 C 354.400 250.786,361.400 250.597,361.802 249.400 C 362.063 248.622,362.624 248.659,364.321 249.563 C 365.806 250.354,366.679 250.455,367.052 249.878 C 367.353 249.412,370.835 248.773,374.788 248.458 C 378.741 248.144,382.161 247.597,382.388 247.244 C 382.615 246.890,384.040 246.332,385.555 246.003 C 387.070 245.674,388.767 244.999,389.327 244.502 C 390.851 243.151,392.314 242.099,394.014 241.132 C 396.234 239.869,398.962 234.533,399.615 230.178 C 400.230 226.080,400.230 226.081,398.263 227.229 M269.950 239.304 C 261.878 247.905,228.885 249.142,214.186 241.394 C 211.648 240.056,209.373 239.160,209.130 239.403 C 207.804 240.730,214.904 246.400,217.892 246.400 C 218.538 246.400,219.187 246.750,219.333 247.178 C 219.480 247.606,222.300 248.200,225.600 248.499 C 228.900 248.798,231.843 249.414,232.139 249.870 C 232.495 250.417,233.117 250.333,233.973 249.622 C 234.954 248.808,235.492 248.772,236.194 249.474 C 237.328 250.608,241.600 250.708,241.600 249.600 C 241.600 249.160,242.320 248.800,243.200 248.800 C 244.080 248.800,244.800 249.160,244.800 249.600 C 244.800 250.762,249.381 250.583,249.933 249.400 C 250.307 248.600,250.493 248.600,250.867 249.400 C 251.419 250.584,253.600 250.750,253.600 249.609 C 253.600 249.174,254.410 248.839,255.400 248.864 C 258.593 248.945,264.000 247.811,264.000 247.060 C 264.000 246.658,264.450 246.402,265.000 246.491 C 267.575 246.906,271.076 244.094,273.618 239.569 C 275.732 235.804,273.393 235.635,269.950 239.304 " stroke="none" fill="#353535" fill-rule="evenodd"></path><path id="path2" d="M296.905 153.874 C 296.279 154.627,295.952 168.158,295.807 199.274 L 295.600 243.600 287.600 243.728 C 278.172 243.880,275.444 244.449,274.351 246.492 C 273.334 248.391,274.281 248.470,275.645 246.600 C 276.491 245.440,278.358 245.131,286.533 244.800 L 296.400 244.400 296.800 199.236 L 297.200 154.072 299.200 153.516 C 300.966 153.025,301.001 152.950,299.498 152.880 C 298.562 152.836,297.395 153.283,296.905 153.874 M87.513 189.000 C 89.140 194.858,89.789 202.590,88.710 203.273 C 87.821 203.836,87.871 203.978,88.966 203.988 C 90.118 203.998,90.370 203.025,90.572 197.800 C 90.788 192.231,90.914 191.803,91.810 193.600 C 92.767 195.518,92.788 195.490,92.321 192.912 C 91.773 189.885,89.802 187.200,88.129 187.200 C 87.357 187.200,87.168 187.755,87.513 189.000 M393.600 187.685 C 393.600 187.951,394.161 190.336,394.848 192.984 C 395.534 195.632,396.164 201.623,396.248 206.299 L 396.400 214.800 364.800 215.200 C 347.420 215.420,332.790 215.867,332.289 216.192 C 330.112 217.608,330.518 226.189,332.829 227.618 C 334.384 228.579,336.653 227.211,336.225 225.572 C 335.759 223.790,334.732 223.510,334.128 225.000 C 333.418 226.750,332.026 223.873,332.012 220.628 C 331.993 215.988,331.902 216.000,366.469 216.000 L 397.843 216.000 397.384 204.049 C 397.005 194.210,397.115 192.171,398.004 192.512 C 399.328 193.020,398.650 189.740,397.112 188.200 C 396.091 187.177,393.600 186.812,393.600 187.685 M345.572 190.376 C 335.677 191.623,331.210 195.174,331.203 201.800 C 331.200 204.746,332.150 205.698,333.276 203.876 C 333.630 203.304,333.496 203.170,332.924 203.524 C 331.385 204.474,331.843 199.868,333.568 197.039 C 336.480 192.262,338.870 191.600,353.200 191.600 C 366.548 191.600,369.473 191.987,371.510 194.024 C 373.078 195.592,372.338 198.076,370.707 196.722 C 370.027 196.159,369.600 196.118,369.600 196.616 C 369.600 197.498,371.453 198.400,373.265 198.400 C 375.007 198.400,374.612 195.676,372.600 193.811 C 369.228 190.687,356.224 189.034,345.572 190.376 M35.200 193.857 C 25.345 195.769,22.829 199.372,22.812 211.600 C 22.797 221.382,25.832 229.295,27.716 224.387 C 28.374 222.671,27.307 220.132,26.486 221.460 C 24.916 224.001,23.635 219.819,23.617 212.098 C 23.588 199.022,26.550 195.667,39.285 194.349 C 53.752 192.852,69.472 197.060,63.917 200.942 C 63.052 201.546,63.027 201.814,63.805 202.129 C 64.358 202.353,64.627 202.832,64.404 203.194 C 64.181 203.555,64.718 203.662,65.599 203.432 C 69.528 202.405,65.163 196.092,59.337 194.375 C 54.749 193.022,41.019 192.728,35.200 193.857 M240.005 193.687 C 233.356 194.702,230.485 196.414,228.009 200.841 C 224.592 206.949,225.532 223.682,229.375 225.156 C 230.961 225.765,232.107 224.140,231.288 222.443 C 230.958 221.759,230.590 218.320,230.472 214.800 C 230.353 211.280,230.081 208.222,229.867 208.005 C 229.652 207.788,229.595 211.106,229.738 215.378 C 229.971 222.283,229.867 223.012,228.800 221.945 C 225.891 219.033,226.801 203.148,230.101 199.226 C 236.271 191.893,271.200 192.363,271.200 199.778 C 271.200 200.579,270.686 200.745,269.437 200.348 C 267.870 199.851,267.808 199.922,268.875 200.989 C 273.106 205.220,275.200 201.499,271.075 197.078 C 267.919 193.697,251.603 191.915,240.005 193.687 M349.600 194.400 C 349.600 194.840,351.580 195.200,354.000 195.200 C 356.420 195.200,358.400 194.840,358.400 194.400 C 358.400 193.960,356.420 193.600,354.000 193.600 C 351.580 193.600,349.600 193.960,349.600 194.400 M336.974 197.618 C 336.037 199.119,336.081 199.163,337.582 198.226 C 338.472 197.670,339.200 196.942,339.200 196.608 C 339.200 195.453,337.981 196.006,336.974 197.618 M141.800 198.151 C 142.570 198.353,143.830 198.353,144.600 198.151 C 145.370 197.950,144.740 197.786,143.200 197.786 C 141.660 197.786,141.030 197.950,141.800 198.151 M66.401 203.867 C 65.960 204.013,65.600 205.033,65.600 206.133 C 65.600 207.386,65.973 208.003,66.600 207.784 C 67.150 207.591,67.494 206.841,67.365 206.117 C 67.236 205.393,67.596 204.754,68.165 204.698 C 68.734 204.642,73.160 204.326,78.000 203.996 L 86.800 203.396 77.001 203.498 C 71.612 203.554,66.842 203.720,66.401 203.867 M74.200 207.794 C 77.390 207.946,82.610 207.946,85.800 207.794 C 88.990 207.642,86.380 207.518,80.000 207.518 C 73.620 207.518,71.010 207.642,74.200 207.794 M25.612 213.047 C 25.605 215.915,25.903 217.507,26.393 217.205 C 27.321 216.631,27.240 210.947,26.283 209.437 C 25.894 208.825,25.619 210.305,25.612 213.047 M126.669 219.654 C 126.404 220.343,126.523 221.243,126.934 221.654 C 127.395 222.115,127.680 221.637,127.680 220.400 C 127.680 218.101,127.356 217.862,126.669 219.654 M350.600 219.799 C 359.730 219.927,374.670 219.927,383.800 219.799 C 392.930 219.671,385.460 219.566,367.200 219.566 C 348.940 219.566,341.470 219.671,350.600 219.799 M91.245 221.555 C 90.389 222.411,89.466 224.481,89.193 226.155 C 87.003 239.608,80.760 243.555,59.600 244.866 C 30.140 246.691,7.893 242.906,5.086 235.592 C 4.493 234.045,3.200 234.051,3.200 235.600 C 3.200 236.260,2.814 236.800,2.343 236.800 C 1.871 236.800,2.019 237.334,2.671 237.986 C 3.324 238.638,4.042 239.628,4.268 240.186 C 4.593 240.990,4.833 240.979,5.428 240.132 C 6.031 239.274,7.103 239.528,10.889 241.422 C 18.472 245.215,24.513 246.001,46.000 245.990 C 78.524 245.973,85.871 243.066,89.498 228.785 C 91.078 222.564,92.800 219.777,92.800 223.440 C 92.800 226.617,94.041 226.073,94.262 222.800 C 94.474 219.650,93.537 219.263,91.245 221.555 M397.031 227.400 C 396.125 228.390,395.121 230.100,394.801 231.200 C 391.641 242.036,382.878 244.943,353.200 245.000 C 328.269 245.047,321.677 243.610,314.341 236.526 C 311.667 233.944,311.422 233.861,310.557 235.245 C 309.927 236.255,309.898 236.889,310.466 237.241 C 310.924 237.524,311.628 238.620,312.030 239.678 C 312.852 241.841,314.400 242.269,314.400 240.333 C 314.400 239.637,314.670 239.189,315.000 239.338 C 315.330 239.487,317.400 240.548,319.600 241.695 C 326.207 245.139,332.892 246.002,352.800 245.980 C 382.482 245.948,391.768 242.912,395.595 231.989 C 396.287 230.015,397.651 227.778,398.626 227.018 C 399.602 226.258,400.013 225.628,399.539 225.618 C 399.066 225.608,397.938 226.410,397.031 227.400 M206.675 237.575 C 207.101 239.707,210.400 244.122,210.400 242.560 C 210.400 242.208,209.974 241.494,209.453 240.973 C 207.361 238.881,209.835 239.101,214.186 241.394 C 228.885 249.142,261.878 247.905,269.950 239.304 C 272.359 236.737,276.441 235.541,274.400 238.000 C 273.584 238.983,273.639 239.200,274.702 239.200 C 276.381 239.200,276.407 236.328,274.735 235.686 C 272.927 234.992,273.137 234.877,269.288 238.671 C 259.744 248.080,222.544 247.866,211.722 238.340 C 207.374 234.513,206.022 234.308,206.675 237.575 M392.000 242.346 C 392.000 242.756,391.280 243.321,390.400 243.600 C 389.520 243.879,388.800 244.427,388.800 244.817 C 388.800 245.207,389.878 244.912,391.195 244.163 C 393.574 242.809,394.331 241.600,392.800 241.600 C 392.360 241.600,392.000 241.936,392.000 242.346 M121.200 248.800 C 122.080 249.178,123.520 249.477,124.400 249.464 C 125.686 249.445,125.608 249.315,124.000 248.800 C 121.265 247.924,119.161 247.924,121.200 248.800 M329.600 248.763 C 330.260 249.210,331.490 249.581,332.333 249.588 C 334.380 249.604,333.742 249.146,330.800 248.488 C 329.047 248.096,328.724 248.170,329.600 248.763 M374.000 248.800 C 371.822 249.354,371.785 249.414,373.600 249.449 C 374.700 249.470,376.320 249.178,377.200 248.800 C 379.173 247.952,377.331 247.952,374.000 248.800 M32.800 249.600 C 32.800 250.040,33.541 250.400,34.447 250.400 C 35.353 250.400,35.872 250.040,35.600 249.600 C 35.328 249.160,34.587 248.800,33.953 248.800 C 33.319 248.800,32.800 249.160,32.800 249.600 M43.200 249.600 C 43.200 250.040,44.100 250.400,45.200 250.400 C 46.300 250.400,47.200 250.040,47.200 249.600 C 47.200 249.160,46.300 248.800,45.200 248.800 C 44.100 248.800,43.200 249.160,43.200 249.600 M56.000 249.550 C 56.000 249.963,56.695 250.248,57.545 250.184 C 58.394 250.120,58.913 249.783,58.697 249.434 C 58.149 248.547,56.000 248.640,56.000 249.550 M134.000 249.600 C 133.718 250.056,134.407 250.400,135.600 250.400 C 136.793 250.400,137.482 250.056,137.200 249.600 C 136.928 249.160,136.208 248.800,135.600 248.800 C 134.992 248.800,134.272 249.160,134.000 249.600 M145.200 249.600 C 144.901 250.084,146.007 250.400,148.000 250.400 C 149.993 250.400,151.099 250.084,150.800 249.600 C 150.528 249.160,149.268 248.800,148.000 248.800 C 146.732 248.800,145.472 249.160,145.200 249.600 M157.600 249.600 C 157.600 250.040,158.521 250.400,159.647 250.400 C 160.808 250.400,161.480 250.054,161.200 249.600 C 160.928 249.160,160.007 248.800,159.153 248.800 C 158.299 248.800,157.600 249.160,157.600 249.600 M224.800 249.107 C 224.800 249.275,225.700 249.586,226.800 249.796 C 227.900 250.006,228.800 249.868,228.800 249.489 C 228.800 249.110,227.900 248.800,226.800 248.800 C 225.700 248.800,224.800 248.938,224.800 249.107 M234.000 249.600 C 233.728 250.040,234.268 250.400,235.200 250.400 C 236.132 250.400,236.672 250.040,236.400 249.600 C 236.128 249.160,235.588 248.800,235.200 248.800 C 234.812 248.800,234.272 249.160,234.000 249.600 M241.600 249.600 C 241.600 250.040,242.320 250.400,243.200 250.400 C 244.080 250.400,244.800 250.040,244.800 249.600 C 244.800 249.160,244.080 248.800,243.200 248.800 C 242.320 248.800,241.600 249.160,241.600 249.600 M349.600 249.600 C 349.600 250.040,350.680 250.400,352.000 250.400 C 353.320 250.400,354.400 250.040,354.400 249.600 C 354.400 249.160,353.320 248.800,352.000 248.800 C 350.680 248.800,349.600 249.160,349.600 249.600 M361.600 249.600 C 361.600 250.040,362.341 250.400,363.247 250.400 C 364.153 250.400,364.672 250.040,364.400 249.600 C 364.128 249.160,363.387 248.800,362.753 248.800 C 362.119 248.800,361.600 249.160,361.600 249.600 " stroke="none" fill="#4a4a4a" fill-rule="evenodd"></path><path id="path3" d="M296.595 151.896 C 296.241 153.250,295.096 153.426,284.521 153.744 C 278.095 153.937,272.664 154.269,272.452 154.481 C 270.919 156.015,271.953 184.396,273.568 185.116 C 274.666 185.606,275.190 186.468,275.037 187.531 C 274.733 189.648,272.005 190.300,271.988 188.259 C 271.977 187.028,271.857 186.988,271.217 188.000 C 270.153 189.682,272.138 191.518,274.283 190.837 C 276.625 190.094,276.924 187.478,276.643 170.199 C 276.488 160.590,276.688 155.182,277.200 155.152 C 277.640 155.127,281.785 155.146,286.412 155.194 C 294.792 155.280,294.832 155.272,297.161 152.840 C 298.846 151.082,299.148 150.400,298.243 150.400 C 297.552 150.400,296.811 151.073,296.595 151.896 M25.200 180.673 C 23.440 180.963,32.620 181.207,45.600 181.215 C 70.060 181.230,74.985 181.779,81.678 185.240 C 83.641 186.255,83.862 186.215,84.239 184.772 C 84.535 183.639,85.068 183.342,86.126 183.722 C 87.067 184.059,86.832 183.627,85.474 182.525 C 83.175 180.660,80.812 180.308,79.487 181.633 C 78.910 182.210,77.571 182.182,75.127 181.545 C 71.210 180.522,30.433 179.810,25.200 180.673 M128.200 180.551 C 128.970 180.753,130.230 180.753,131.000 180.551 C 131.770 180.350,131.140 180.186,129.600 180.186 C 128.060 180.186,127.430 180.350,128.200 180.551 M167.809 180.566 C 168.804 180.757,170.244 180.750,171.009 180.550 C 171.774 180.349,170.960 180.193,169.200 180.202 C 167.440 180.211,166.814 180.374,167.809 180.566 M226.400 180.674 C 224.860 180.963,231.700 181.200,241.600 181.200 C 256.789 181.200,260.066 181.411,262.583 182.552 C 264.317 183.338,265.760 183.589,266.030 183.152 C 266.285 182.738,267.193 182.400,268.047 182.400 C 270.189 182.400,270.005 181.057,267.800 180.602 C 264.993 180.023,229.536 180.085,226.400 180.674 M335.200 180.772 C 321.375 182.521,316.385 185.504,311.929 194.685 C 310.679 197.261,309.193 199.926,308.628 200.606 C 307.896 201.487,307.544 205.850,307.406 215.775 L 307.212 229.708 309.108 227.454 C 310.892 225.332,311.027 224.424,311.398 212.000 C 312.116 187.935,315.993 183.552,338.400 181.480 C 353.750 180.061,376.286 181.119,383.699 183.608 C 389.493 185.553,389.838 185.583,390.866 184.226 C 392.862 181.591,388.745 179.322,386.041 181.566 C 385.266 182.209,384.032 182.207,381.489 181.559 C 377.187 180.464,342.324 179.870,335.200 180.772 M178.243 181.857 C 181.802 182.406,183.544 182.376,184.165 181.755 C 184.804 181.116,183.428 180.903,179.122 180.978 L 173.200 181.080 178.243 181.857 M15.268 182.974 C 10.631 184.612,5.536 189.808,3.673 194.800 C 2.853 197.000,1.690 199.368,1.091 200.063 C 0.249 201.037,0.022 204.602,0.095 215.663 C 0.147 223.548,0.451 228.920,0.771 227.600 L 1.353 225.200 2.226 227.200 C 2.907 228.762,3.111 226.483,3.154 216.800 C 3.259 193.239,6.088 186.701,17.747 183.078 C 20.086 182.352,21.280 181.750,20.400 181.742 C 19.520 181.733,17.211 182.288,15.268 182.974 M216.884 183.708 C 212.090 186.097,208.736 190.171,206.823 195.931 C 206.126 198.029,204.780 200.579,203.831 201.597 C 201.928 203.640,201.375 228.095,203.192 229.912 C 203.736 230.456,204.000 230.137,204.000 228.935 C 204.000 227.953,204.540 226.943,205.200 226.689 C 206.169 226.318,206.400 224.485,206.400 217.172 C 206.400 195.444,209.554 187.351,219.600 183.300 C 221.800 182.413,223.041 181.668,222.357 181.644 C 221.673 181.620,219.210 182.549,216.884 183.708 M101.000 197.597 C 99.200 199.056,98.542 202.699,99.925 203.553 C 100.544 203.937,103.549 196.878,102.998 196.333 C 102.889 196.226,101.990 196.794,101.000 197.597 M372.800 201.546 C 372.800 201.956,373.520 202.521,374.400 202.800 C 376.203 203.372,376.471 204.809,375.040 206.240 C 373.417 207.863,334.400 207.587,334.400 205.953 C 334.400 205.267,334.040 204.928,333.600 205.200 C 329.764 207.571,332.886 208.000,353.982 208.000 C 377.298 208.000,378.427 207.735,377.079 202.582 C 376.617 200.812,372.800 199.888,372.800 201.546 M274.949 206.165 C 274.619 206.696,273.795 206.917,273.117 206.658 C 271.063 205.869,271.736 217.530,273.843 219.236 C 277.486 222.186,272.728 228.797,265.580 230.718 C 262.142 231.641,261.723 231.906,263.630 231.947 C 270.781 232.102,275.912 226.294,276.541 217.334 C 276.926 211.841,275.900 204.638,274.949 206.165 M168.859 213.411 C 168.827 214.847,169.123 216.647,169.518 217.411 C 169.912 218.175,170.608 219.700,171.064 220.800 C 171.857 222.717,171.891 222.683,171.887 220.000 C 171.884 218.460,171.215 215.760,170.400 214.000 L 168.919 210.800 168.859 213.411 M90.074 220.400 C 88.792 222.356,88.544 222.400,78.802 222.400 L 68.841 222.400 67.702 224.602 C 66.066 227.767,63.818 229.568,59.865 230.882 L 56.400 232.033 59.408 231.665 C 63.069 231.218,66.807 228.680,68.433 225.537 L 69.641 223.200 79.021 223.188 C 84.179 223.181,88.760 222.911,89.200 222.588 C 90.885 221.350,93.010 218.400,92.216 218.400 C 91.758 218.400,90.794 219.300,90.074 220.400 M396.563 226.082 C 395.186 227.918,394.719 228.000,385.581 228.000 C 376.391 228.000,375.990 228.071,374.779 229.919 C 373.606 231.710,371.432 232.925,367.600 233.930 C 366.720 234.161,367.440 234.194,369.200 234.003 C 371.479 233.755,373.030 232.957,374.589 231.228 C 376.777 228.801,376.781 228.800,385.673 228.800 C 394.111 228.800,401.572 226.337,398.603 224.532 C 398.271 224.330,397.353 225.028,396.563 226.082 M28.857 226.731 C 26.068 230.092,31.742 232.173,44.369 232.420 L 54.800 232.624 45.600 232.002 C 34.829 231.275,31.706 230.474,31.322 228.342 C 30.902 226.009,29.965 225.397,28.857 226.731 M231.990 226.813 C 229.189 230.187,235.101 232.212,248.399 232.432 L 259.600 232.617 249.600 232.005 C 237.625 231.272,234.776 230.529,234.860 228.160 C 234.934 226.082,233.251 225.292,231.990 226.813 M130.933 226.933 C 130.042 227.825,130.336 229.404,131.475 229.841 C 132.245 230.137,132.446 229.707,132.182 228.327 C 131.779 226.220,131.717 226.150,130.933 226.933 M336.160 229.760 C 332.841 233.079,338.181 234.678,353.200 234.861 L 366.000 235.017 354.400 234.451 C 341.462 233.819,338.000 232.920,338.800 230.399 C 339.377 228.583,337.735 228.185,336.160 229.760 M276.422 239.965 C 276.162 240.386,275.420 240.527,274.774 240.279 C 273.875 239.934,273.600 240.508,273.600 242.733 L 273.600 245.637 275.600 244.326 C 276.808 243.535,277.600 242.260,277.600 241.108 C 277.600 239.090,277.202 238.703,276.422 239.965 " stroke="none" fill="#808080" fill-rule="evenodd"></path><path id="path4" d="M272.000 153.585 C 272.000 154.033,273.140 154.400,274.533 154.400 C 277.446 154.400,277.341 154.051,274.200 153.297 C 272.894 152.984,272.000 153.101,272.000 153.585 M281.829 153.392 C 284.375 153.551,288.335 153.550,290.629 153.389 C 292.923 153.228,290.840 153.097,286.000 153.099 C 281.160 153.101,279.283 153.233,281.829 153.392 M168.800 177.570 C 170.042 177.986,164.887 178.308,155.200 178.420 C 129.294 178.717,125.568 179.724,149.600 179.933 C 161.260 180.034,172.600 180.365,174.800 180.668 C 177.000 180.971,180.060 181.034,181.600 180.809 L 184.400 180.400 181.200 179.383 C 179.440 178.824,177.100 178.221,176.000 178.043 C 174.900 177.865,174.000 177.664,174.000 177.598 C 174.000 177.531,172.380 177.347,170.400 177.188 C 167.672 176.969,167.284 177.062,168.800 177.570 M71.816 178.851 C 71.568 179.098,62.058 179.339,50.683 179.386 L 30.000 179.471 50.400 180.004 C 61.620 180.297,72.533 180.963,74.652 181.484 C 76.771 182.004,78.841 182.222,79.252 181.968 C 80.693 181.077,79.981 180.000,77.953 180.000 C 76.792 180.000,76.120 179.654,76.400 179.200 C 76.915 178.366,72.627 178.039,71.816 178.851 M243.600 179.169 L 230.800 179.600 246.800 180.051 C 263.012 180.507,265.600 180.377,265.600 179.107 C 265.600 178.718,263.530 178.476,261.000 178.569 C 258.470 178.662,250.640 178.932,243.600 179.169 M361.200 179.152 L 344.400 179.600 361.200 180.148 C 370.440 180.450,379.499 181.075,381.331 181.537 C 385.518 182.593,389.979 180.993,386.895 179.541 C 384.884 178.595,383.096 178.568,361.200 179.152 M20.800 180.827 C 19.509 181.258,20.360 181.333,23.200 181.039 C 25.620 180.788,27.750 180.452,27.933 180.292 C 28.574 179.731,22.782 180.165,20.800 180.827 M118.800 181.230 C 115.692 182.305,115.680 182.323,118.400 181.828 C 119.940 181.548,122.640 181.067,124.400 180.760 L 127.600 180.200 124.800 180.162 C 123.260 180.140,120.560 180.621,118.800 181.230 M221.712 180.918 C 217.430 182.150,219.148 182.315,224.400 181.175 C 227.245 180.558,228.223 180.136,226.800 180.139 C 225.480 180.142,223.191 180.492,221.712 180.918 M334.611 180.574 C 335.827 180.758,337.627 180.753,338.611 180.563 C 339.595 180.373,338.600 180.223,336.400 180.229 C 334.200 180.235,333.395 180.390,334.611 180.574 M326.800 181.637 C 325.685 182.143,326.170 182.215,328.400 181.875 C 330.160 181.607,331.750 181.256,331.933 181.094 C 332.621 180.488,328.336 180.942,326.800 181.637 M111.200 184.103 C 109.660 185.036,107.140 187.134,105.600 188.765 C 104.060 190.395,102.204 191.946,101.475 192.211 C 100.158 192.689,98.633 197.300,99.505 198.171 C 100.259 198.925,102.422 196.696,103.546 194.006 C 105.021 190.476,109.309 185.795,112.720 183.993 C 114.304 183.156,115.240 182.456,114.800 182.438 C 114.360 182.421,112.740 183.169,111.200 184.103 M214.867 183.949 C 211.788 185.978,204.000 194.447,204.000 195.765 C 204.000 196.334,203.640 196.800,203.200 196.800 C 202.760 196.800,202.400 198.060,202.400 199.600 C 202.400 203.465,203.543 203.103,205.556 198.600 C 209.529 189.714,210.988 187.557,214.752 185.000 C 216.858 183.570,218.270 182.402,217.890 182.405 C 217.511 182.408,216.150 183.103,214.867 183.949 M321.153 183.644 C 319.625 184.868,319.626 184.876,321.200 184.152 C 322.080 183.747,323.340 183.216,324.000 182.971 C 325.037 182.587,325.030 182.518,323.953 182.463 C 323.267 182.428,322.007 182.960,321.153 183.644 M5.903 189.000 C 1.513 193.286,0.712 194.511,0.295 197.578 C -0.357 202.372,1.434 201.007,3.562 195.089 C 4.482 192.531,6.423 189.535,8.516 187.442 C 10.409 185.549,11.748 184.000,11.491 184.000 C 11.235 184.000,8.720 186.250,5.903 189.000 M272.000 187.259 C 272.000 189.163,272.313 189.657,273.391 189.449 C 275.125 189.116,275.730 186.428,274.279 185.508 C 272.456 184.353,272.000 184.703,272.000 187.259 M314.400 188.800 C 312.367 191.000,310.317 192.800,309.845 192.800 C 308.724 192.800,307.936 195.440,307.576 200.400 C 307.416 202.600,307.485 203.680,307.729 202.800 C 307.973 201.920,308.506 200.788,308.914 200.285 C 309.322 199.781,310.678 197.258,311.929 194.677 C 313.179 192.095,315.395 188.817,316.853 187.392 C 318.311 185.966,319.187 184.800,318.800 184.800 C 318.413 184.800,316.433 186.600,314.400 188.800 M372.800 203.200 C 372.800 203.640,373.160 204.000,373.600 204.000 C 374.040 204.000,374.400 204.540,374.400 205.200 C 374.400 206.233,371.733 206.400,355.200 206.400 C 338.667 206.400,336.000 206.233,336.000 205.200 C 336.000 204.540,335.640 204.000,335.200 204.000 C 334.760 204.000,334.400 204.726,334.400 205.614 C 334.400 207.968,374.041 207.739,375.513 205.377 C 376.200 204.276,376.129 203.782,375.200 203.189 C 373.644 202.197,372.800 202.201,372.800 203.200 M306.618 212.800 C 306.618 214.780,306.774 215.590,306.965 214.600 C 307.155 213.610,307.155 211.990,306.965 211.000 C 306.774 210.010,306.618 210.820,306.618 212.800 M168.739 217.753 C 168.705 218.329,168.551 219.474,168.395 220.297 C 168.240 221.120,168.428 222.621,168.812 223.632 C 169.372 225.105,169.082 225.905,167.356 227.653 C 165.355 229.679,165.334 229.765,167.068 228.853 C 169.515 227.566,171.316 223.178,170.687 220.033 C 170.175 217.474,168.846 215.919,168.739 217.753 M89.889 219.600 C 89.520 220.564,87.736 220.800,80.834 220.800 C 70.620 220.800,67.863 221.574,66.652 224.780 C 66.166 226.068,64.561 227.857,63.084 228.757 C 61.608 229.658,60.801 230.395,61.292 230.397 C 62.772 230.402,66.354 227.209,67.624 224.753 L 68.816 222.448 78.912 222.224 C 88.370 222.014,89.083 221.886,90.202 220.200 C 90.858 219.210,91.160 218.400,90.872 218.400 C 90.585 218.400,90.143 218.940,89.889 219.600 M272.000 220.400 C 272.000 221.500,272.360 222.400,272.800 222.400 C 274.371 222.400,273.561 224.963,271.262 227.262 C 269.975 228.548,269.193 229.600,269.522 229.600 C 272.100 229.600,276.012 221.543,274.386 219.583 C 272.929 217.827,272.000 218.145,272.000 220.400 M396.524 225.165 C 396.136 226.176,394.436 226.400,387.173 226.400 C 377.688 226.400,376.631 226.692,373.008 230.315 C 369.264 234.059,346.266 235.099,342.505 231.695 C 340.827 230.176,338.120 229.960,338.594 231.382 C 340.276 236.428,371.362 235.135,374.807 229.877 C 375.983 228.083,376.455 228.000,385.494 228.000 C 394.596 228.000,399.555 226.488,397.427 224.361 C 397.191 224.124,396.784 224.487,396.524 225.165 M31.344 228.151 C 31.798 231.259,50.590 233.472,58.252 231.320 C 59.271 231.034,55.131 230.800,49.052 230.800 C 38.090 230.800,37.981 230.782,35.683 228.600 C 32.853 225.913,30.989 225.720,31.344 228.151 M132.144 228.146 C 132.569 231.049,149.941 233.162,159.172 231.434 C 161.883 230.926,160.150 230.755,151.972 230.724 C 141.818 230.685,140.980 230.560,137.372 228.541 C 132.729 225.944,131.812 225.875,132.144 228.146 M234.703 227.566 C 233.334 231.132,252.662 233.636,263.563 231.305 C 264.863 231.027,260.363 230.800,253.563 230.800 L 241.200 230.800 238.209 228.512 C 235.588 226.507,235.154 226.390,234.703 227.566 " stroke="none" fill="#a4a4a4" fill-rule="evenodd"></path><path id="path5" d="M10.800 180.857 C 8.160 182.191,5.305 184.253,4.455 185.441 L 2.910 187.600 4.855 186.000 C 5.925 185.120,6.980 184.179,7.200 183.908 C 7.420 183.637,8.410 183.163,9.400 182.854 C 10.390 182.545,11.200 181.995,11.200 181.633 C 11.200 181.084,14.148 179.908,16.133 179.665 C 16.427 179.629,16.937 179.330,17.267 179.000 C 18.636 177.631,15.281 178.594,10.800 180.857 M217.200 179.200 C 216.928 179.640,217.447 180.000,218.353 180.000 C 219.259 180.000,220.000 179.640,220.000 179.200 C 220.000 178.760,219.481 178.400,218.847 178.400 C 218.213 178.400,217.472 178.760,217.200 179.200 M323.200 179.200 C 323.200 179.640,323.740 180.000,324.400 180.000 C 325.060 180.000,325.600 179.640,325.600 179.200 C 325.600 178.760,325.060 178.400,324.400 178.400 C 323.740 178.400,323.200 178.760,323.200 179.200 M213.400 180.551 C 212.630 180.753,212.000 181.251,212.000 181.659 C 212.000 182.706,212.949 182.539,214.753 181.175 C 216.307 179.999,216.021 179.867,213.400 180.551 M316.966 181.713 C 315.518 182.641,314.470 183.536,314.637 183.703 C 315.147 184.213,320.000 181.533,320.000 180.741 C 320.000 179.766,320.015 179.761,316.966 181.713 M98.214 208.907 C 98.011 210.286,98.104 212.536,98.420 213.907 C 98.864 215.833,99.003 215.263,99.033 211.400 C 99.074 205.918,98.783 205.030,98.214 208.907 M61.200 226.164 C 59.880 226.879,59.237 227.610,59.772 227.789 C 60.306 227.968,61.544 227.369,62.523 226.457 C 64.639 224.485,64.398 224.432,61.200 226.164 M264.800 227.200 C 264.800 227.640,265.340 228.000,266.000 228.000 C 266.660 228.000,267.200 227.640,267.200 227.200 C 267.200 226.760,266.660 226.400,266.000 226.400 C 265.340 226.400,264.800 226.760,264.800 227.200 " stroke="none" fill="#ffffff" fill-rule="evenodd"></path><path id="path6" d="M191.006 188.460 C 190.753 188.713,190.904 190.063,191.341 191.460 C 192.646 195.630,193.137 220.457,192.043 226.946 C 189.764 240.454,184.590 243.498,161.433 244.953 C 132.857 246.749,114.913 244.444,107.181 237.984 C 104.620 235.844,101.600 234.966,101.600 236.361 C 101.600 237.171,105.652 241.015,106.067 240.600 C 106.359 240.308,107.904 240.727,109.499 241.533 C 117.611 245.627,120.488 245.975,146.400 245.988 C 190.526 246.010,193.830 243.519,193.876 210.200 C 193.888 201.070,194.169 193.600,194.500 193.600 C 194.830 193.600,195.048 192.905,194.984 192.055 C 194.920 191.206,194.583 190.687,194.234 190.903 C 193.885 191.118,193.600 190.553,193.600 189.647 C 193.600 188.115,192.058 187.409,191.006 188.460 M137.693 193.693 C 125.427 195.116,121.257 201.433,122.660 216.464 C 123.220 222.459,124.541 225.038,126.758 224.468 C 127.615 224.247,128.875 224.451,129.558 224.921 C 130.241 225.391,129.236 224.347,127.324 222.601 L 123.848 219.425 124.124 211.113 C 124.577 197.480,127.338 195.175,143.949 194.563 C 159.567 193.988,168.977 196.460,167.607 200.778 C 167.203 202.050,167.449 202.400,168.746 202.400 C 170.714 202.400,170.747 202.191,169.235 199.268 C 166.542 194.059,153.859 191.818,137.693 193.693 " stroke="none" fill="#653031" fill-rule="evenodd"></path><path id="path7" d="M296.762 153.241 C 294.930 155.190,294.470 155.277,286.422 155.194 C 281.790 155.146,277.640 155.127,277.200 155.152 C 276.688 155.182,276.488 160.590,276.643 170.199 C 276.922 187.377,276.618 190.096,274.334 190.821 C 271.745 191.643,270.397 189.976,271.432 187.233 C 272.754 183.731,267.926 180.083,266.030 183.152 C 265.760 183.589,264.317 183.338,262.583 182.552 C 257.491 180.244,225.939 180.651,220.000 183.100 C 209.492 187.435,206.400 195.181,206.400 217.172 C 206.400 224.485,206.169 226.318,205.200 226.689 C 203.610 227.299,203.593 233.556,205.175 235.647 C 205.836 236.522,206.360 236.763,206.375 236.200 C 206.419 234.455,208.049 235.107,211.722 238.340 C 222.587 247.904,259.746 248.078,269.350 238.611 C 271.577 236.415,273.385 235.253,274.131 235.540 C 274.791 235.793,275.481 236.000,275.665 236.000 C 275.849 236.000,276.000 236.720,276.000 237.600 C 276.000 238.586,275.463 239.205,274.600 239.212 C 273.429 239.222,273.392 239.346,274.373 239.966 C 275.117 240.437,275.922 240.397,276.573 239.856 C 277.363 239.201,277.600 239.468,277.600 241.010 C 277.600 242.267,276.853 243.505,275.600 244.326 C 274.500 245.047,273.611 246.079,273.624 246.618 C 273.638 247.179,273.977 247.038,274.414 246.289 C 275.492 244.443,278.415 243.876,287.600 243.728 L 295.600 243.600 295.807 199.274 C 296.021 153.341,296.062 152.800,299.345 152.800 C 300.197 152.800,300.672 152.440,300.400 152.000 C 299.633 150.759,298.838 151.031,296.762 153.241 M26.800 181.299 C 7.580 183.279,3.275 189.742,3.154 216.800 C 3.109 226.770,2.919 228.808,2.184 227.200 C 1.042 224.705,0.330 229.641,1.178 234.165 C 1.671 236.793,3.200 237.878,3.200 235.600 C 3.200 234.051,4.493 234.045,5.086 235.592 C 7.893 242.906,30.140 246.691,59.600 244.866 C 81.047 243.537,86.022 240.347,89.404 225.752 C 90.078 222.844,90.020 222.374,89.036 222.752 C 88.394 222.998,83.819 223.200,78.869 223.200 L 69.868 223.200 67.934 226.140 C 62.083 235.033,23.390 235.360,28.943 226.469 C 30.134 224.561,29.305 223.385,27.704 224.714 C 22.883 228.715,20.411 207.980,24.782 200.203 C 30.795 189.505,67.200 190.716,67.200 201.614 C 67.200 202.993,66.845 203.294,65.599 202.968 C 64.718 202.738,64.157 202.806,64.351 203.121 C 64.735 203.742,88.785 203.482,89.418 202.849 C 89.822 202.445,88.402 192.206,87.480 188.874 C 87.003 187.148,87.148 186.998,88.874 187.435 C 90.631 187.880,90.569 187.714,88.161 185.538 C 85.524 183.155,84.000 183.056,84.000 185.268 C 84.000 186.293,83.720 186.296,81.778 185.292 C 75.191 181.886,43.469 179.582,26.800 181.299 M336.400 181.536 C 316.310 183.499,312.083 188.652,311.412 212.000 C 311.041 224.880,310.150 228.928,307.979 227.587 C 307.299 227.167,308.185 231.328,309.429 234.400 C 310.124 236.115,310.319 236.204,310.797 235.022 C 311.278 233.832,311.751 234.027,314.277 236.466 C 321.686 243.617,328.212 245.048,353.200 245.000 C 382.878 244.943,391.641 242.036,394.801 231.200 C 395.121 230.100,396.153 228.300,397.092 227.200 L 398.800 225.200 396.748 227.000 C 394.882 228.637,393.888 228.800,385.737 228.800 C 376.793 228.800,376.774 228.804,374.589 231.209 C 372.914 233.052,371.272 233.824,367.600 234.495 C 354.200 236.944,330.271 233.541,336.000 230.000 C 337.688 228.957,336.794 227.299,334.625 227.449 C 331.010 227.700,329.034 218.304,332.262 216.209 C 332.778 215.874,347.420 215.420,364.800 215.200 L 396.400 214.800 396.248 206.299 C 396.164 201.623,395.534 195.632,394.848 192.984 C 393.323 187.101,393.324 187.200,394.800 187.200 C 396.524 187.200,396.282 186.144,394.086 184.081 L 392.173 182.283 390.990 183.971 L 389.808 185.659 383.592 183.572 C 376.746 181.274,350.620 180.147,336.400 181.536 M367.600 191.313 C 372.621 192.616,377.212 198.400,373.225 198.400 C 372.509 198.400,372.230 198.869,372.511 199.600 C 372.764 200.260,373.791 200.800,374.792 200.800 C 377.136 200.800,377.978 203.704,376.354 206.182 C 375.165 207.997,375.127 208.000,353.982 208.000 C 332.116 208.000,330.986 207.825,333.800 204.870 C 334.616 204.014,334.468 203.920,333.000 204.364 C 328.027 205.866,332.171 194.450,337.390 192.269 C 343.502 189.715,359.495 189.209,367.600 191.313 M265.734 194.394 C 269.936 195.477,272.405 197.688,273.260 201.132 C 273.748 203.094,273.631 203.383,272.520 202.957 C 270.795 202.295,270.772 204.258,272.485 205.970 C 273.433 206.919,274.044 207.028,274.817 206.386 C 276.379 205.089,277.304 215.123,276.138 220.712 C 274.933 226.480,273.382 228.622,268.933 230.657 C 259.178 235.117,226.915 231.965,231.847 227.033 C 232.302 226.578,232.473 225.679,232.226 225.035 C 231.919 224.236,231.602 224.149,231.225 224.760 C 226.978 231.631,223.840 208.292,228.009 200.841 C 232.063 193.594,250.447 190.452,265.734 194.394 M196.533 206.933 C 195.672 207.794,195.918 217.600,196.800 217.600 C 197.257 217.600,197.600 215.200,197.600 212.000 C 197.600 206.369,197.513 205.954,196.533 206.933 M91.507 220.135 C 90.004 221.828,90.005 221.830,92.000 220.808 C 94.605 219.473,94.636 219.440,93.760 218.899 C 93.350 218.645,92.336 219.202,91.507 220.135 M62.799 249.602 C 62.514 250.062,62.997 250.299,63.931 250.156 C 66.228 249.806,67.006 248.800,64.981 248.800 C 64.053 248.800,63.071 249.161,62.799 249.602 M126.800 249.600 C 128.985 250.539,129.600 250.539,129.600 249.600 C 129.600 249.160,128.610 248.825,127.400 248.856 C 125.451 248.906,125.382 248.991,126.800 249.600 M164.800 249.600 C 164.800 250.040,165.340 250.400,166.000 250.400 C 166.660 250.400,167.200 250.040,167.200 249.600 C 167.200 249.160,166.660 248.800,166.000 248.800 C 165.340 248.800,164.800 249.160,164.800 249.600 " stroke="none" fill="#616060" fill-rule="evenodd"></path><path id="path8" d="M124.610 181.227 C 111.328 183.038,106.320 187.020,102.360 198.919 C 101.428 201.720,100.323 203.799,99.903 203.540 C 98.542 202.699,99.407 232.084,100.806 234.209 C 101.461 235.205,102.433 235.851,102.967 235.647 C 103.501 235.442,105.397 236.494,107.181 237.984 C 114.913 244.444,132.857 246.749,161.433 244.953 C 184.590 243.498,189.764 240.454,192.043 226.946 C 193.144 220.420,192.643 195.624,191.326 191.407 C 190.668 189.302,190.752 188.682,191.773 188.111 C 193.435 187.181,191.056 183.725,187.800 182.341 C 186.590 181.827,185.600 181.090,185.600 180.703 C 185.600 180.316,185.240 180.000,184.800 180.000 C 184.360 180.000,184.090 180.450,184.200 181.000 C 184.452 182.261,180.476 182.250,170.800 180.962 C 161.438 179.717,134.557 179.871,124.610 181.227 M155.807 193.572 C 163.613 194.469,167.636 196.176,169.235 199.268 C 170.789 202.273,170.748 202.398,168.200 202.412 C 166.990 202.419,166.391 202.689,166.870 203.012 C 167.348 203.336,168.114 205.400,168.572 207.600 C 169.030 209.800,170.041 213.243,170.819 215.250 C 173.187 221.358,171.069 227.118,165.329 230.182 C 158.337 233.914,129.599 231.950,130.680 227.814 C 131.219 225.755,129.094 223.928,126.800 224.478 C 119.204 226.300,121.460 200.409,129.295 195.832 C 133.469 193.395,145.411 192.376,155.807 193.572 " stroke="none" fill="#9b3336" fill-rule="evenodd"></path><path id="path9" d="M272.755 151.228 C 270.429 152.666,273.257 153.154,284.041 153.177 C 290.176 153.189,295.196 153.139,295.197 153.065 C 295.199 152.991,295.423 152.349,295.696 151.639 C 296.250 150.195,275.041 149.815,272.755 151.228 M34.400 176.768 C 34.400 177.278,34.100 177.509,33.733 177.282 C 32.856 176.740,18.510 178.232,17.321 178.989 C 16.814 179.312,16.220 179.610,16.000 179.653 C 13.583 180.121,11.200 181.104,11.200 181.633 C 11.200 181.995,10.433 182.536,9.495 182.833 C 7.274 183.538,3.200 187.183,3.200 188.466 C 3.200 189.016,2.888 189.587,2.506 189.733 C 2.124 189.880,1.537 190.900,1.203 192.000 C 0.721 193.582,1.661 192.982,5.697 189.130 C 14.650 180.585,21.404 179.152,52.280 179.247 C 69.884 179.302,74.039 179.041,71.115 178.066 C 66.571 176.551,34.400 175.414,34.400 176.768 M133.967 176.853 C 133.699 177.287,132.697 177.549,131.740 177.435 C 128.340 177.031,116.731 178.531,114.583 179.652 C 113.382 180.278,111.950 180.792,111.400 180.795 C 110.850 180.798,110.400 181.160,110.400 181.600 C 110.400 182.040,109.877 182.400,109.239 182.400 C 107.806 182.400,102.625 187.631,101.949 189.760 C 101.031 192.652,102.284 192.192,106.321 188.155 C 113.664 180.812,120.404 179.366,150.623 178.649 C 161.525 178.391,170.320 178.053,170.166 177.899 C 168.792 176.525,134.778 175.542,133.967 176.853 M235.157 176.309 C 234.917 176.550,231.500 177.112,227.565 177.559 C 223.629 178.007,220.287 178.739,220.138 179.186 C 219.989 179.634,219.191 180.000,218.366 180.000 C 216.368 180.000,211.245 182.588,211.220 183.610 C 211.209 184.056,210.391 184.776,209.403 185.210 C 207.674 185.970,203.658 192.725,204.460 193.526 C 204.675 193.741,206.909 191.707,209.425 189.006 C 216.752 181.141,223.217 179.274,243.288 179.225 C 248.837 179.211,255.137 178.941,257.288 178.624 L 261.200 178.048 257.200 177.370 C 252.160 176.515,235.742 175.725,235.157 176.309 M343.127 176.334 C 342.866 176.598,338.906 177.171,334.327 177.607 C 329.747 178.043,325.880 178.760,325.733 179.200 C 325.587 179.640,324.756 180.000,323.887 180.000 C 320.032 180.000,311.164 186.734,309.940 190.590 C 308.995 193.565,310.551 193.133,313.855 189.501 C 321.487 181.114,329.926 179.332,362.800 179.162 C 378.105 179.083,384.149 178.201,375.600 177.294 C 368.290 176.519,343.663 175.791,343.127 176.334 M336.000 205.200 C 336.000 206.233,338.667 206.400,355.200 206.400 C 371.733 206.400,374.400 206.233,374.400 205.200 C 374.400 204.167,371.733 204.000,355.200 204.000 C 338.667 204.000,336.000 204.167,336.000 205.200 M66.045 220.178 C 65.360 221.156,64.800 222.397,64.800 222.937 C 64.800 223.476,63.865 224.926,62.723 226.159 L 60.646 228.400 48.418 228.383 C 35.941 228.365,32.057 229.591,40.552 230.865 C 52.582 232.669,64.018 230.077,66.400 225.007 C 68.021 221.557,70.618 220.800,80.834 220.800 C 87.736 220.800,89.520 220.564,89.889 219.600 C 90.764 217.321,67.654 217.881,66.045 220.178 M271.200 222.825 C 271.200 223.471,270.840 224.000,270.400 224.000 C 269.960 224.000,269.600 224.540,269.600 225.200 C 269.600 225.860,269.090 226.400,268.467 226.400 C 267.843 226.400,267.184 226.847,267.002 227.393 C 266.755 228.136,263.101 228.379,252.529 228.358 C 239.779 228.332,238.508 228.451,239.623 229.565 C 241.270 231.211,262.850 231.349,267.387 229.742 C 272.027 228.099,275.244 223.202,272.400 222.111 C 271.669 221.830,271.200 222.109,271.200 222.825 M166.963 224.479 C 166.172 225.536,165.032 226.400,164.429 226.400 C 163.827 226.400,163.201 226.797,163.039 227.283 C 162.843 227.870,158.543 228.205,150.213 228.283 C 137.843 228.398,135.036 229.222,142.927 230.419 C 156.964 232.550,170.773 229.070,168.881 223.879 C 168.469 222.747,168.195 222.833,166.963 224.479 M374.400 224.847 C 374.400 225.313,374.051 225.478,373.623 225.214 C 373.196 224.951,372.617 225.649,372.337 226.767 C 372.056 227.885,371.484 228.800,371.066 228.800 C 370.648 228.800,370.514 229.137,370.768 229.549 C 371.538 230.794,364.787 231.373,352.909 231.079 C 338.443 230.720,338.176 232.716,352.599 233.400 C 365.560 234.014,369.993 233.272,373.458 229.907 C 376.881 226.583,377.408 226.448,387.935 226.198 C 401.724 225.871,399.793 224.000,385.667 224.000 C 378.270 224.000,374.400 224.291,374.400 224.847 " stroke="none" fill="#b9baba" fill-rule="evenodd"></path></g></svg>